<?xml version="1.0" encoding="UTF-8"?>
<svg xmlns="http://www.w3.org/2000/svg" version="1.1" viewBox="0 0 512 512">
  <defs>
    <style>
      .cls-1 {
        fill: #342a2a;
      }
    </style>
  </defs>
  <!-- Generator: Adobe Illustrator 28.6.0, SVG Export Plug-In . SVG Version: 1.2.0 Build 709)  -->
  <g>
    <g id="Capa_1">
      <g>
        <path class="cls-1" d="M175.3,336.5c-22.2,35-43,57.4-55.8,57.4s-4.8,0-6.4-1.6c-1.6-3.2-3.2-6.4-1.6-9.6,1.6-12.8,27.2-30.4,63.8-46.2Z"/>
        <path class="cls-1" d="M237.5,189.7c-12.8-35-11.2-60.6-6.4-70.2,1.6-3.2,4.8-4.8,8-4.8,8,0,9.6,9.6,9.6,17.6-1.6,19.2-4.8,39.8-11.2,57.4Z"/>
        <path class="cls-1" d="M250.3,248.7c7.9,14.3,22.2,30.1,28.6,38-2.6-.2-28.8,5.6-49.4,13,8-14.4,17.6-41.4,20.8-51Z"/>
        <path class="cls-1" d="M279.1,286.9c0,0-.1-.1-.2-.2.3,0,.3,0,.2.2Z"/>
        <path class="cls-1" d="M385.9,310.9c-1.6,6.4-9.6,12.8-24,9.6-17.6-4.8-33.4-12.8-46.2-24,11.2-1.6,38.2-4.8,57.4-1.6,6.4,1.6,14.4,6.4,12.8,16Z"/>
        <path class="cls-1" d="M421,6.4H91C39.8,6.4,0,46.2,0,97.2v317.5c0,51,41.4,90.8,91,91h330.1c51.2,0,91-41.6,91-91V97.4c0-51.2-41.6-91-91-91ZM413.4,320.1c-3,8-11,17.6-33.4,17.6s-48-4.6-83-36.6c-30.4,4.8-60.6,14.4-79.8,20.8-24,41.6-57.6,87.8-91,87.8s-16-1.6-22.4-8c-6.4-4.8-9.6-14.4-8-22.4,4.8-28.8,60.6-54.2,86.2-63.8,19-33.4,35-76.4,44.6-105.2-17.6-39.8-22.4-78-11.2-97.2,4.8-8,12.8-12.8,22.4-12.8,25.4,0,35,23.8,35,47.8s-6.4,52.6-14.4,76.6c6.4,9.6,22.2,35,44.6,57.4,15.8-1.6,81.2-12.8,105.2,12.8,6.4,6.4,9.4,17.6,5.2,25.2Z"/>
      </g>
    </g>
  </g>
</svg>