<?xml version="1.0" encoding="UTF-8"?>
<svg xmlns="http://www.w3.org/2000/svg" version="1.1" viewBox="0 0 173.2 173.2">
  <defs>
    <style>
      .cls-1 {
        fill: #0ca57a;
      }
    </style>
  </defs>
  <!-- Generator: Adobe Illustrator 28.6.0, SVG Export Plug-In . SVG Version: 1.2.0 Build 709)  -->
  <g>
    <g id="Capa_1">
      <g id="Capa_1-2" data-name="Capa_1">
        <path class="cls-1" d="M173.2,28.9v57.7c0,37.7-24.1,69.8-57.8,81.7-9,3.2-18.8,4.9-28.9,4.9s-19.9-1.7-28.9-4.9c-10.8-3.8-20.5-9.7-28.9-17.1C11.1,135.3,0,112.3,0,86.6V28.9c0-8,3.2-15.2,8.5-20.4C13.7,3.2,20.9,0,28.9,0s15.2,3.2,20.4,8.4c5.2,5.2,8.5,12.5,8.5,20.4v57.8c0,15.9,12.9,28.9,28.9,28.9s28.9-12.9,28.9-28.9V28.9c0-8,3.2-15.2,8.5-20.4,5.2-5.2,12.4-8.4,20.4-8.4,16,0,28.9,12.9,28.9,28.9h0Z"/>
      </g>
    </g>
  </g>
</svg>