<?xml version="1.0" encoding="UTF-8"?>
<svg id="Capa_1" xmlns="http://www.w3.org/2000/svg" version="1.1" viewBox="0 0 10 10">
  <!-- Generator: Adobe Illustrator 29.5.1, SVG Export Plug-In . SVG Version: 2.1.0 Build 141)  -->
  <defs>
    <style>
      .st0 {
        fill: #0ca57a;
      }
    </style>
  </defs>
  <g id="Capa_11" data-name="Capa_1">
    <g id="Capa_1-2">
      <path class="st0" d="M9.98,1.68v3.32c0,2.17-1.39,4.02-3.33,4.71-.52.18-1.08.28-1.66.28s-1.15-.1-1.66-.28c-.62-.22-1.18-.56-1.66-.98-1.01-.92-1.65-2.24-1.65-3.72V1.68c0-.46.18-.88.49-1.17C.79.2,1.2.01,1.66.01s.88.18,1.17.48c.3.3.49.72.49,1.17v3.33c0,.92.74,1.66,1.66,1.66s1.66-.74,1.66-1.66V1.68c0-.46.18-.88.49-1.17.3-.3.71-.48,1.17-.48.92,0,1.66.74,1.66,1.66h-.01Z"/>
    </g>
  </g>
</svg>