<?xml version="1.0" encoding="UTF-8"?>
<svg xmlns="http://www.w3.org/2000/svg" version="1.1" viewBox="0 0 512 512">
  <defs>
    <style>
      .cls-1, .cls-2 {
        fill: #342a2a;
      }

      .cls-2 {
        fill-rule: evenodd;
      }
    </style>
  </defs>
  <!-- Generator: Adobe Illustrator 28.6.0, SVG Export Plug-In . SVG Version: 1.2.0 Build 709)  -->
  <g>
    <g id="Capa_1">
      <g>
        <path class="cls-2" d="M256,6.3C114.6,6.3,0,120.9,0,262.3s73.3,209.1,175.1,242.9c12.8,2.4,17.5-5.5,17.5-12.3s-.2-26.3-.3-47.7c-71.2,15.5-86.3-30.2-86.3-30.2-11.6-29.6-28.4-37.5-28.4-37.5-23.2-15.9,1.7-15.6,1.7-15.6,25.7,1.8,39.2,26.4,39.2,26.4,22.8,39.1,59.9,27.8,74.5,21.3,2.3-16.6,8.9-27.8,16.3-34.2-56.9-6.5-116.6-28.4-116.6-126.5s10-50.8,26.4-68.7c-2.7-6.5-11.4-32.5,2.5-67.8,0,0,21.5-6.9,70.4,26.2,20.4-5.7,42.3-8.5,64.1-8.6,21.8.1,43.7,2.9,64.1,8.6,48.9-33.1,70.3-26.2,70.3-26.2,13.9,35.3,5.2,61.3,2.5,67.8,16.4,17.9,26.3,40.8,26.3,68.7,0,98.3-59.9,120-116.9,126.3,9.2,7.9,17.4,23.5,17.4,47.4,0,34.3-.3,61.8-.3,70.3s4.6,14.8,17.6,12.3c101.7-33.9,174.9-129.8,174.9-242.9,0-141.4-114.6-256-256-256Z"/>
        <path class="cls-1" d="M97,373.9c-.6,1.3-2.6,1.7-4.4.8-1.9-.8-2.9-2.6-2.3-3.8.6-1.3,2.6-1.7,4.4-.8,1.9.8,2.9,2.6,2.3,3.8h0Z"/>
        <path class="cls-1" d="M107.3,385.5c-1.2,1.1-3.6.6-5.2-1.2-1.7-1.8-2-4.2-.7-5.3,1.3-1.1,3.6-.6,5.2,1.2,1.7,1.8,2,4.1.7,5.3h0Z"/>
        <path class="cls-1" d="M117.4,400.2c-1.6,1.1-4.1,0-5.7-2.2-1.6-2.3-1.6-5,0-6.1,1.6-1.1,4.1-.1,5.7,2.2,1.6,2.3,1.6,5,0,6.1h0Z"/>
        <path class="cls-1" d="M131.2,414.4c-1.4,1.6-4.4,1.1-6.6-1-2.2-2.1-2.9-5-1.5-6.5,1.4-1.6,4.4-1.1,6.6,1,2.2,2.1,2.9,5,1.4,6.5h0Z"/>
        <path class="cls-1" d="M150.3,422.7c-.6,2-3.5,2.9-6.4,2.1-2.9-.9-4.8-3.2-4.2-5.2.6-2,3.5-3,6.4-2,2.9.9,4.8,3.2,4.2,5.2h0Z"/>
        <path class="cls-1" d="M171.3,424.2c0,2.1-2.4,3.9-5.4,3.9-3.1,0-5.5-1.6-5.6-3.7,0-2.1,2.4-3.9,5.5-3.9s5.5,1.6,5.5,3.7h0Z"/>
        <path class="cls-1" d="M190.8,420.9c.4,2-1.7,4.2-4.8,4.7-3,.6-5.7-.7-6.1-2.8-.4-2.1,1.8-4.2,4.8-4.8,3-.5,5.7.7,6.1,2.8h0Z"/>
      </g>
    </g>
  </g>
</svg>