<?xml version="1.0" encoding="UTF-8"?>
<svg xmlns="http://www.w3.org/2000/svg" version="1.1" viewBox="0 0 512 512">
  <defs>
    <style>
      .cls-1 {
        fill: beige;
      }
    </style>
  </defs>
  <!-- Generator: Adobe Illustrator 28.6.0, SVG Export Plug-In . SVG Version: 1.2.0 Build 709)  -->
  <g>
    <g id="Capa_1">
      <g>
        <path class="cls-1" d="M256,46.1c68.4,0,76.5.3,103.4,1.5,27.9,1.3,56.6,7.6,77,28,20.5,20.5,26.7,49,28,77,1.2,27,1.5,35.1,1.5,103.4s-.3,76.5-1.5,103.4c-1.3,27.8-7.8,56.8-28,77s-49,26.7-77,28c-27,1.2-35.1,1.5-103.4,1.5s-76.5-.3-103.4-1.5c-27.5-1.3-56.9-7.9-77-28-20.4-20.4-26.7-49.2-28-77-1.2-27-1.5-35.1-1.5-103.4s.3-76.5,1.5-103.4c1.3-27.6,7.8-56.8,28-77,20.5-20.5,49-26.7,77-28,27-1.2,35.1-1.5,103.4-1.5M256,0C186.5,0,177.7.3,150.4,1.5c-39.6,1.8-78.9,12.8-107.5,41.4C14.3,71.7,3.3,110.9,1.5,150.4c-1.2,27.3-1.5,36-1.5,105.6s.3,78.3,1.5,105.6c1.8,39.5,12.9,78.9,41.4,107.5,28.7,28.7,68,39.6,107.5,41.4,27.3,1.2,36,1.5,105.6,1.5s78.3-.3,105.6-1.5c39.6-1.8,78.9-12.8,107.5-41.4s39.6-67.9,41.4-107.5c1.2-27.3,1.5-36,1.5-105.6s-.3-78.3-1.5-105.6c-1.8-39.6-12.8-78.9-41.4-107.5C440.4,14.3,401,3.3,361.6,1.5,334.3.3,325.5,0,256,0Z"/>
        <path class="cls-1" d="M256,124.5c-72.6,0-131.5,58.9-131.5,131.5s58.9,131.5,131.5,131.5,131.5-58.9,131.5-131.5-58.9-131.5-131.5-131.5ZM256,341.3c-47.1,0-85.3-38.2-85.3-85.3s38.2-85.3,85.3-85.3,85.3,38.2,85.3,85.3-38.2,85.3-85.3,85.3Z"/>
        <circle class="cls-1" cx="392.7" cy="119.3" r="30.7"/>
      </g>
    </g>
  </g>
</svg>