<?xml version="1.0" encoding="UTF-8"?>
<svg xmlns="http://www.w3.org/2000/svg" version="1.1" viewBox="0 0 447.7 176.6">
  <defs>
    <style>
      .cls-1 {
        fill: #09a57a;
      }
    </style>
  </defs>
  <!-- Generator: Adobe Illustrator 28.6.0, SVG Export Plug-In . SVG Version: 1.2.0 Build 709)  -->
  <g>
    <g id="Capa_1">
      <g id="Capa_1-2" data-name="Capa_1">
        <g>
          <path class="cls-1" d="M294.3,29.4v58.7c0,38.4-24.5,71-58.7,83.1-9.2,3.2-19.1,5-29.4,5s-20.2-1.8-29.4-5c-10.9-3.9-20.9-9.8-29.4-17.4-18-16.1-29.4-39.6-29.4-65.7V29.4c0-8.1,3.3-15.5,8.6-20.8,5.3-5.3,12.6-8.6,20.7-8.6s15.4,3.3,20.7,8.6c5.3,5.3,8.6,12.7,8.6,20.8v58.7c0,16.2,13.1,29.4,29.4,29.4s29.4-13.2,29.4-29.4V29.4c0-8.1,3.3-15.5,8.6-20.8C249.5,3.3,256.8,0,264.9,0,281.2,0,294.3,13.2,294.3,29.4h0Z"/>
          <path class="cls-1" d="M448.5,146.8c0,16.2-13.1,29.4-29.4,29.4h-29.5c-10.2,0-20.1-1.8-29.2-5-10.9-3.9-20.9-9.8-29.4-17.4-18-16.1-29.4-39.6-29.4-65.7V29.4c0-8.1,3.3-15.5,8.6-20.8C315.6,3.3,322.9,0,331,0s15.4,3.3,20.7,8.6c5.3,5.3,8.6,12.7,8.6,20.8v58.7c0,16.2,13,29.3,29.2,29.4h29.5c16.2,0,29.4,13.1,29.4,29.4h0Z"/>
          <path class="cls-1" d="M141.8,158.8c-7.1,5.4-15.1,9.7-23.8,12.8-9.2,3.3-19.2,5-29.5,5s-20.3-1.8-29.5-5C24.6,159.4,0,126.6,0,88.1V29.1C0,12.8,13.2-.4,29.5-.4s15.5,3.3,20.8,8.6c5.3,5.3,8.7,12.7,8.7,20.9v59c0,16.3,13.2,29.5,29.5,29.5s18.4-4.7,23.8-12c3.8,20.3,14.1,39.1,29.5,53.2h0Z"/>
        </g>
      </g>
    </g>
  </g>
</svg>