<?xml version="1.0" encoding="UTF-8"?>
<svg id="Capa_1" xmlns="http://www.w3.org/2000/svg" version="1.1" viewBox="0 0 202.71 79.82">
  <!-- Generator: Adobe Illustrator 29.5.1, SVG Export Plug-In . SVG Version: 2.1.0 Build 141)  -->
  <defs>
    <style>
      .st0 {
        fill: #09a57a;
      }
    </style>
  </defs>
  <g id="Capa_11" data-name="Capa_1">
    <g id="Capa_1-2">
      <g>
        <path class="st0" d="M133.02,13.29v26.53c0,17.36-11.07,32.09-26.53,37.56-4.16,1.45-8.63,2.26-13.29,2.26s-9.13-.81-13.29-2.26c-4.93-1.76-9.45-4.43-13.29-7.86-8.14-7.28-13.29-17.9-13.29-29.69V13.29c0-3.66,1.49-7.01,3.89-9.4,2.4-2.4,5.69-3.89,9.36-3.89s6.96,1.49,9.36,3.89c2.4,2.4,3.89,5.74,3.89,9.4v26.53c0,7.32,5.92,13.29,13.29,13.29s13.29-5.97,13.29-13.29V13.29c0-3.66,1.49-7.01,3.89-9.4,2.49-2.4,5.79-3.89,9.45-3.89,7.37,0,13.29,5.97,13.29,13.29h0Z"/>
        <path class="st0" d="M202.71,66.35c0,7.32-5.92,13.29-13.29,13.29h-13.33c-4.61,0-9.08-.81-13.2-2.26-4.93-1.76-9.45-4.43-13.29-7.86-8.14-7.28-13.29-17.9-13.29-29.69V13.29c0-3.66,1.49-7.01,3.89-9.4,2.44-2.4,5.74-3.89,9.4-3.89s6.96,1.49,9.36,3.89c2.4,2.4,3.89,5.74,3.89,9.4v26.53c0,7.32,5.88,13.24,13.2,13.29h13.33c7.32,0,13.29,5.92,13.29,13.29h0l.05-.05Z"/>
        <path class="st0" d="M64.09,71.77c-3.21,2.44-6.82,4.38-10.76,5.79-4.16,1.49-8.68,2.26-13.33,2.26s-9.18-.81-13.33-2.26C11.12,72.05,0,57.22,0,39.82V13.15C0,5.79,5.97-.18,13.33-.18s7.01,1.49,9.4,3.89c2.4,2.4,3.93,5.74,3.93,9.45v26.67c0,7.37,5.97,13.33,13.33,13.33s8.32-2.12,10.76-5.42c1.72,9.18,6.37,17.67,13.33,24.05h0Z"/>
      </g>
    </g>
  </g>
</svg>