<?xml version="1.0" encoding="UTF-8"?>
<svg xmlns="http://www.w3.org/2000/svg" version="1.1" viewBox="0 0 512 512">
  <defs>
    <style>
      .cls-1 {
        fill: #342a2a;
      }
    </style>
  </defs>
  <!-- Generator: Adobe Illustrator 28.6.0, SVG Export Plug-In . SVG Version: 1.2.0 Build 709)  -->
  <g>
    <g id="Capa_1">
      <g>
        <path class="cls-1" d="M511.8,80.7c-1.2-10.9-7.9-20.6-17.9-25.4L388.4,4.5c-11.9-5.7-26.1-3.5-35.6,5.5-.3.2-.5.4-.7.7l-170.1,188.1-99.2-81.4-8.7-7.2c-6.1-5.2-14.6-6.5-22.1-3.5l-38.8,16c-7.9,3.3-13.1,11-13.1,19.6v227.5c0,8.6,5.2,16.3,13.1,19.6l38.8,16.3c7.4,3.1,16,1.7,22.1-3.5l8.7-7.5,99.2-81.4,170.1,188.1c.2.2.5.4.7.7,9.6,9,23.7,11.2,35.7,5.5l105.5-50.8c10-4.8,16.8-14.5,17.9-25.4.1-1.1.2-2.2.2-3.4V84.1c0-1.2,0-2.3-.2-3.4ZM64,329.1v-146.2l66.1,73.1-66.1,73.1ZM251.8,256l132.2-108.4v216.8l-132.2-108.4Z"/>
        <path class="cls-1" d="M82.7,117.3l-8.7-7.2c-6.1-5.2-14.6-6.5-22.1-3.5,7.4-3.2,15.9-1.9,22.1,3.2l8.7,7.5Z"/>
        <path class="cls-1" d="M511.8,431.4c-1.2,10.9-7.9,20.6-17.9,25.5l-105.5,50.7,105.5-50.8c10-4.8,16.7-14.5,17.9-25.4Z"/>
        <path class="cls-1" d="M493.9,55.3L388.4,4.5l105.5,50.7c10.1,4.8,16.8,14.5,17.9,25.5-1.2-10.9-7.9-20.5-17.9-25.4Z"/>
      </g>
    </g>
  </g>
</svg>