<?xml version="1.0" encoding="UTF-8"?>
<svg id="Capa_1" xmlns="http://www.w3.org/2000/svg" version="1.1" viewBox="0 0 35 35">
  <!-- Generator: Adobe Illustrator 29.5.1, SVG Export Plug-In . SVG Version: 2.1.0 Build 141)  -->
  <defs>
    <style>
      .st0 {
        fill: #342a2a;
      }
    </style>
  </defs>
  <g id="Capa_11" data-name="Capa_1">
    <g>
      <path class="st0" d="M34.98,5.42c-.08-.75-.54-1.41-1.22-1.74L26.54.21c-.81-.39-1.78-.24-2.43.38-.02.01-.03.03-.05.05l-11.63,12.86-6.78-5.56-.59-.49c-.42-.36-1-.44-1.51-.24l-2.65,1.09c-.54.23-.9.75-.9,1.34v15.55c0,.59.36,1.11.9,1.34l2.65,1.11c.51.21,1.09.12,1.51-.24l.59-.51,6.78-5.56,11.63,12.86s.03.03.05.05c.66.62,1.62.77,2.44.38l7.21-3.47c.68-.33,1.15-.99,1.22-1.74,0-.08.01-.15.01-.23V5.66c0-.08,0-.16-.01-.23h0ZM4.37,22.4v-9.99l4.52,5s-4.52,5-4.52,5ZM17.21,17.41l9.04-7.41v14.82l-9.04-7.41h0Z"/>
      <path class="st0" d="M5.65,7.93l-.59-.49c-.42-.36-1-.44-1.51-.24.51-.22,1.09-.13,1.51.22l.59.51Z"/>
      <path class="st0" d="M34.98,29.4c-.08.75-.54,1.41-1.22,1.74l-7.21,3.47,7.21-3.47c.68-.33,1.14-.99,1.22-1.74h0Z"/>
      <path class="st0" d="M33.76,3.69L26.54.21l7.21,3.47c.69.33,1.15.99,1.22,1.74-.08-.75-.54-1.4-1.22-1.74Z"/>
    </g>
  </g>
</svg>