<?xml version="1.0" encoding="UTF-8"?>
<svg xmlns="http://www.w3.org/2000/svg" version="1.1" viewBox="0 0 512 512">
  <defs>
    <style>
      .cls-1 {
        fill: beige;
      }
    </style>
  </defs>
  <!-- Generator: Adobe Illustrator 28.6.0, SVG Export Plug-In . SVG Version: 1.2.0 Build 709)  -->
  <g>
    <g id="Capa_1">
      <path class="cls-1" d="M501.3,132c-5.9-22.2-23.2-39.6-45.3-45.6-39.9-10.8-200-10.8-200-10.8,0,0-160.1,0-200,10.8-22,5.9-39.4,23.4-45.2,45.6C0,172.2,0,256,0,256c0,0,0,83.8,10.7,124,5.9,22.2,23.2,39.6,45.3,45.6,39.9,10.8,200,10.8,200,10.8,0,0,160.1,0,200-10.8,22-5.9,39.4-23.4,45.3-45.6,10.7-40.2,10.7-124,10.7-124,0,0,0-83.8-10.7-124ZM203.6,332.1v-152.3l133.8,76.1-133.8,76.1Z"/>
    </g>
  </g>
</svg>